<svg width="35" height="35" viewBox="0 0 35 35" fill="none" xmlns="http://www.w3.org/2000/svg">
<path d="M17.5 14.3784C19.2205 14.3784 20.6216 15.7795 20.6216 17.5C20.6216 19.2204 19.2205 20.6215 17.5 20.6215C15.7795 20.6215 14.3784 19.2204 14.3784 17.5C14.3784 15.7795 15.7795 14.3784 17.5 14.3784ZM26.2391 23.7037L26.9281 23.5331C32.0556 22.2337 35 20.0353 35 17.4945C35 14.9537 32.0545 12.7553 26.9281 11.4559L26.2391 11.2853L26.0455 11.9689C25.5254 13.7594 24.8604 15.5046 24.057 17.1872L23.9094 17.4945L24.057 17.8073C24.8622 19.4891 25.5273 21.2345 26.0455 23.0256L26.2391 23.7037ZM27.2464 13.0506C31.1434 14.1444 33.5355 15.8244 33.5355 17.4945C33.5355 19.1647 31.1423 20.8381 27.2464 21.9384C26.7697 20.4207 26.1931 18.9362 25.5205 17.4945C26.1931 16.0529 26.7697 14.5683 27.2464 13.0506ZM8.76094 23.7037L8.95453 23.0201C9.47302 21.2309 10.1381 19.4873 10.943 17.8073L11.0906 17.4945L10.943 17.1817C10.1378 15.4999 9.47273 13.7546 8.95453 11.9634L8.76094 11.2853L8.07187 11.4559C2.94437 12.7553 0 14.9537 0 17.4945C0 20.0353 2.94547 22.2337 8.07187 23.5331L8.76094 23.7037ZM9.47953 17.4945C8.80542 18.9355 8.22882 20.4202 7.7536 21.9384C3.8511 20.8392 1.46453 19.1647 1.46453 17.4945C1.46453 15.8244 3.85766 14.1509 7.7536 13.0506C8.23327 14.5673 8.80976 16.0516 9.47953 17.4945ZM27.2584 13.0451L27.452 12.3615C28.8936 7.27998 28.455 3.63451 26.25 2.36357C24.0855 1.1156 20.6161 2.59107 16.9761 6.32841L16.4806 6.83591L16.9761 7.34341C18.2686 8.68845 19.4497 10.1362 20.5078 11.6725L20.7069 11.9514L21.0492 11.9798C22.9103 12.1267 24.7564 12.424 26.5694 12.869L27.2584 13.0451ZM24.4902 3.37857C24.8828 3.37857 25.2306 3.45841 25.5216 3.62904C26.9686 4.46685 27.2245 7.37185 26.2281 11.2908C24.6736 10.9419 23.0977 10.6964 21.5108 10.5558C20.5968 9.25495 19.5978 8.01595 18.5205 6.84685C20.7933 4.63091 22.9469 3.37857 24.4902 3.37857ZM10.5044 33.0684C10.5102 33.0684 10.5102 33.0684 10.5044 33.0684C12.5836 33.0684 15.2556 31.5076 18.0239 28.6595L18.5194 28.152L18.0239 27.6445C16.7314 26.2995 15.5503 24.8517 14.4922 23.3154L14.2986 23.0365L13.9563 23.0026C12.0928 22.8605 10.2445 22.5631 8.43063 22.1134L7.74156 21.9428L7.54797 22.6264C6.10641 27.7079 6.545 31.3479 8.75 32.6178C9.28322 32.9239 9.88964 33.0804 10.5044 33.0684ZM16.4806 28.1411C14.2078 30.357 12.0542 31.6104 10.5109 31.6104H10.5055C10.1183 31.6104 9.77047 31.5251 9.47953 31.36C8.0325 30.5222 7.77 27.6172 8.77297 23.6983C10.3276 24.0453 11.9035 24.289 13.4903 24.4278C14.4041 25.7305 15.4031 26.9702 16.4806 28.1411ZM7.74156 13.0451L8.43063 12.869C10.2458 12.4256 12.0936 12.1283 13.9563 11.9798L14.2986 11.9514L14.4922 11.6725C15.5503 10.1362 16.7314 8.68845 18.0239 7.34341L18.5194 6.83591L18.0239 6.32841C14.3839 2.59107 10.9145 1.1156 8.75 2.36357C6.545 3.63341 6.10641 7.27998 7.54797 12.3615L7.74156 13.0451ZM13.4892 10.5558C11.9023 10.6964 10.3264 10.9419 8.77188 11.2908C7.76891 7.37185 8.03141 4.46576 9.47844 3.62904C10.92 2.79779 13.6314 4.0731 16.4795 6.84795C15.4045 8.01906 14.4057 9.25791 13.4892 10.5569V10.5558ZM24.4902 33.0684C25.1059 33.0794 25.7152 32.9262 26.25 32.6189C28.455 31.349 28.8936 27.7079 27.452 22.6275L27.2584 21.9439L26.5694 22.1145C24.8828 22.5422 23.0256 22.8375 21.0492 23.0037L20.7069 23.0376L20.5133 23.3165C19.4552 24.8528 18.2741 26.3006 16.9816 27.6456L16.4861 28.1531L16.9816 28.6606C19.7444 31.5087 22.4164 33.0695 24.4902 33.0695V33.0684ZM26.227 23.6983C27.23 27.6172 26.9675 30.5233 25.5205 31.36C24.0789 32.1803 21.373 30.9159 18.5194 28.1411C19.5969 26.9702 20.5959 25.7294 21.5097 24.4267C23.0967 24.2895 24.6727 24.0469 26.227 23.6983ZM17.5 24.6148C18.702 24.6148 19.9325 24.5634 21.1684 24.4606L21.5108 24.4322L21.7098 24.1478C22.4079 23.1447 23.0636 22.1127 23.6753 21.0547C24.2881 19.9965 24.8563 18.9131 25.3783 17.8073L25.5259 17.4945L25.3783 17.1817C24.3326 14.9706 23.1056 12.8498 21.7098 10.8412L21.5108 10.5569L21.1684 10.5284C18.7271 10.323 16.2729 10.323 13.8316 10.5284L13.4892 10.5569L13.2902 10.8412C11.8922 12.8484 10.6651 14.9694 9.62172 17.1817L9.47406 17.4945L9.62172 17.8073C10.6633 20.0206 11.8905 22.1417 13.2902 24.1478L13.4892 24.4322L13.8316 24.4606C15.0518 24.5621 16.2756 24.6135 17.5 24.6148ZM20.7014 23.0311C18.5478 23.1962 16.4522 23.1962 14.2931 23.0311C13.0889 21.2679 12.0188 19.4168 11.0917 17.4934C12.0148 15.5668 13.0871 13.7153 14.2986 11.9558C16.4297 11.7911 18.5703 11.7911 20.7014 11.9558C21.9149 13.7141 22.9872 15.5658 23.9083 17.4934C22.981 19.4178 21.9089 21.269 20.7014 23.0311Z" fill="white"/>
</svg>
