<svg width="35" height="35" viewBox="0 0 35 35" fill="none" xmlns="http://www.w3.org/2000/svg">
<g clip-path="url(#clip0_115_56)">
<path d="M7.32812 0C7.49902 0 7.64941 0.0546875 7.78613 0.136719L14.2324 3.83496C14.417 3.9375 14.54 4.07422 14.6016 4.23828C14.6631 4.38867 14.6631 4.53223 14.6631 4.62109V17.8418L19.3936 15.1279V8.27148C19.3936 8.09375 19.4346 7.92969 19.5439 7.7793C19.6465 7.63574 19.7832 7.5332 19.9336 7.45117L26.3594 3.75977C26.4687 3.69824 26.5918 3.65039 26.7353 3.65039C26.8789 3.65039 27.0088 3.69824 27.1182 3.75977L33.667 7.52637C33.8242 7.61523 33.9336 7.73145 34.0019 7.88867C34.0635 8.03223 34.0635 8.17578 34.0635 8.28516V15.6133C34.0635 15.75 34.0498 15.9072 33.9678 16.0508C33.8857 16.2012 33.7627 16.3037 33.6191 16.3857L33.6123 16.3926L27.5967 19.8447V26.6807C27.5967 26.8379 27.5762 27.0088 27.4873 27.1592C27.3984 27.3096 27.2617 27.4121 27.125 27.4941H27.1182L14.2666 34.8633C14.1162 34.9453 13.959 35 13.7812 35C13.6035 35 13.4463 34.9385 13.2959 34.8633L13.2891 34.8564L0.485352 27.4805L0.451172 27.46C0.375977 27.4121 0.273437 27.3438 0.191406 27.2617C0.0615234 27.1318 0 26.9746 0 26.7695V4.50488C0 4.17676 0.205078 3.96484 0.375977 3.86914L6.87012 0.136719C7.00683 0.0546875 7.16406 0 7.33496 0L7.32812 0ZM2.60449 4.58691L7.32129 7.31445L12.0518 4.58691L7.32129 1.87305L2.60449 4.58691ZM26.7353 10.958L31.4521 8.24414L26.7353 5.53027L22.0117 8.24414L26.7353 10.958ZM12.9336 6.08398L8.20312 8.80469V21.5469L12.9336 18.8193V6.07715V6.08398ZM6.45996 8.81152L1.72266 6.09082V26.2021L12.9336 32.6416V27.2139L6.96582 23.8438L6.95215 23.8369C6.86328 23.7822 6.7334 23.707 6.63769 23.584C6.52148 23.4404 6.4668 23.2627 6.4668 23.0576V8.80469L6.45996 8.81152ZM21.1367 15.1279L25.874 17.835V12.4688L21.1367 9.74121V15.1279ZM27.5967 17.835L32.334 15.1211V9.73438L27.5967 12.4619V17.8281V17.835ZM13.7812 25.71L24.9785 19.3389L20.2617 16.6113L9.0918 23.0439L13.7812 25.7031V25.71ZM14.6631 32.6484L25.874 26.209V20.8223L14.6631 27.2207V32.6484Z" fill="white"/>
</g>
<defs>
<clipPath id="clip0_115_56">
<rect width="35" height="35" fill="white"/>
</clipPath>
</defs>
</svg>
