<svg width="17" height="25" viewBox="0 0 17 25" fill="none" xmlns="http://www.w3.org/2000/svg">
<g clip-path="url(#clip0_115_36)">
<path d="M0.619873 4.67734C0.619873 2.09414 2.51856 0 4.86071 0H12.1374C14.4796 0 16.3783 2.09414 16.3783 4.67734C16.3783 6.31309 15.617 7.75273 14.4639 8.58872C15.617 9.42476 16.3783 10.8644 16.3783 12.5001C16.3783 15.0834 14.4796 17.1775 12.1374 17.1775H12.0453C10.9473 17.1775 9.94676 16.7172 9.19363 15.9621V20.2718C9.19363 22.8895 7.24531 25 4.88355 25C2.54725 25 0.619873 22.9123 0.619873 20.3226C0.619873 18.687 1.38111 17.2474 2.53414 16.4114C1.38107 15.5753 0.619873 14.1357 0.619873 12.5001C0.619873 10.8644 1.38115 9.42476 2.53428 8.58872C1.38115 7.75273 0.619873 6.31309 0.619873 4.67734ZM7.8045 9.35483H4.86071C3.28573 9.35483 2.009 10.763 2.009 12.5001C2.009 14.2305 3.2759 15.6345 4.84247 15.6453L4.86071 15.6453H7.8045V9.35483ZM9.19363 12.5001C9.19363 14.2372 10.4704 15.6454 12.0453 15.6454H12.1374C13.7124 15.6454 14.9891 14.2372 14.9891 12.5001C14.9891 10.763 13.7124 9.35483 12.1374 9.35483H12.0453C10.4704 9.35483 9.19363 10.763 9.19363 12.5001ZM4.86071 17.1775L4.84247 17.1774C3.2759 17.1882 2.009 18.5922 2.009 20.3226C2.009 22.0533 3.30282 23.4679 4.88355 23.4679C6.48979 23.4679 7.8045 22.0306 7.8045 20.2718V17.1775H4.86071ZM4.86071 1.53213C3.28573 1.53213 2.009 2.94033 2.009 4.67734C2.009 6.41445 3.28577 7.82261 4.86071 7.82261H7.8045V1.53208L4.86071 1.53213ZM9.19363 7.82261H12.1374C13.7124 7.82261 14.9891 6.41445 14.9891 4.67734C14.9891 2.94028 13.7124 1.53213 12.1374 1.53213H9.19363V7.82261Z" fill="white"/>
</g>
<defs>
<clipPath id="clip0_115_36">
<rect width="17" height="25" fill="white"/>
</clipPath>
</defs>
</svg>
