<svg width="35" height="35" viewBox="0 0 35 35" fill="none" xmlns="http://www.w3.org/2000/svg">
<g clip-path="url(#clip0_113_33)">
<path d="M24.4271 27.4805C23.2695 27.3742 21.7839 27.1501 20.3481 25.582V28.8079C22.9858 30.5225 27.5224 30.2077 29.104 28.147C30.0439 26.9222 30.4313 25.2816 29.7354 23.4234C28.0957 20.1204 24.1992 19.9153 23.0661 17.8296C21.8142 14.4514 26.9771 13.8411 29.4576 16.117V13.0845C28.4007 12.402 26.7202 12.3286 25.5412 12.3923C22.4301 12.5603 20.3395 14.368 20.3707 17.0608C20.2367 20.8197 24.529 21.7875 26.6843 23.527C28.1481 24.7691 28.0433 27.7814 24.4271 27.4805ZM12.1435 29.6347V15.0408H7.44187V12.6275H19.4495V15.0408H14.7381V29.6347H12.1435ZM32.8125 2.1875V32.8125H2.1875V2.1875H32.8125ZM35 0H0V35H35V0Z" fill="white"/>
</g>
<defs>
<clipPath id="clip0_113_33">
<rect width="35" height="35" fill="white"/>
</clipPath>
</defs>
</svg>
