<svg width="35" height="35" viewBox="0 0 35 35" fill="none" xmlns="http://www.w3.org/2000/svg">
<g clip-path="url(#clip0_115_64)">
<path d="M20.6078 0.0686035C20.3555 0.0686035 20.1207 0.122562 19.9034 0.195479C20.3642 0.501728 20.618 0.910062 20.7434 1.3709C20.7536 1.4336 20.7711 1.47881 20.7798 1.54152C20.7892 1.59556 20.7956 1.6501 20.7988 1.70485C20.8338 2.49964 20.5903 2.60027 20.4196 3.06985C20.1571 3.67506 20.23 4.32548 20.545 4.84902C20.5735 4.91942 20.6097 4.98643 20.653 5.04881C20.3103 2.76215 22.2178 2.41944 22.5692 1.70485C22.5969 1.08069 22.0821 0.665062 21.6753 0.376312C21.3555 0.175396 20.9854 0.0692098 20.6078 0.0700619V0.0686035ZM23.4821 0.583395C23.4471 0.791937 23.4734 0.737978 23.4646 0.845895C23.4559 0.918812 23.4559 1.00923 23.4471 1.08069C23.4282 1.1536 23.4107 1.22652 23.383 1.29798C23.3645 1.3709 23.3402 1.44333 23.31 1.51527L23.2123 1.72235C23.1832 1.75881 23.1671 1.79527 23.1394 1.83173L23.0855 1.91194C23.0426 1.97394 22.9974 2.03427 22.9498 2.09277C22.8959 2.14819 22.8507 2.2109 22.7865 2.2561V2.26485C22.7325 2.31006 22.6786 2.36402 22.6144 2.41069C22.4248 2.55506 22.209 2.66298 22.0092 2.7986C21.9465 2.84235 21.8823 2.88027 21.8284 2.93423C21.7674 2.97786 21.7099 3.02613 21.6563 3.0786C21.5936 3.13256 21.5484 3.18652 21.4944 3.25069C21.4492 3.30465 21.3953 3.36735 21.3588 3.43152C21.314 3.49304 21.2717 3.55628 21.2319 3.6211C21.1955 3.69402 21.1692 3.75673 21.1328 3.82819C21.105 3.9011 21.0788 3.96381 21.0598 4.03673C21.0359 4.1112 21.015 4.18661 20.9971 4.26277C20.9884 4.29923 20.9884 4.34444 20.9796 4.37944C20.9694 4.41589 20.9694 4.45235 20.9607 4.48881C20.9607 4.56173 20.9519 4.64194 20.9519 4.71485C20.95 4.76833 20.9529 4.82228 20.9607 4.87673C20.9607 4.94867 20.9699 5.02402 20.9884 5.10277C20.9981 5.17569 21.0127 5.2486 21.0321 5.32152C21.0613 5.39298 21.0788 5.46444 21.105 5.53735C21.124 5.5811 21.1503 5.62777 21.1692 5.66423L19.0896 4.85923C18.7382 4.76006 18.394 4.66964 18.0411 4.58798L17.4723 4.45235C16.9279 4.34444 16.3796 4.26326 15.8273 4.20881C15.8084 4.20881 15.7996 4.20006 15.7821 4.20006C14.8507 4.10614 13.9128 4.09395 12.9792 4.1636C12.428 4.20006 11.8767 4.27152 11.3255 4.36194C10.9159 4.43312 10.5088 4.51774 10.1048 4.61569L9.69796 4.7236C9.5638 4.77756 9.43546 4.84027 9.31004 4.89569L9.01109 5.03131C8.99359 5.04006 8.97609 5.04006 8.96734 5.04881C8.87546 5.09402 8.79525 5.13048 8.71359 5.17569C8.5964 5.22797 8.48156 5.28539 8.36942 5.34777C8.30671 5.37402 8.244 5.41048 8.18859 5.43819L8.10838 5.48194C8.02574 5.5286 7.94699 5.5743 7.87213 5.61902C7.79824 5.66106 7.72623 5.70631 7.65629 5.75465C7.59213 5.7984 7.52942 5.83485 7.47546 5.88006C7.46671 5.89027 7.4565 5.89027 7.44775 5.89902C7.39379 5.93548 7.33109 5.98069 7.27567 6.0259L7.25817 6.0434L7.12254 6.15131C7.10504 6.16152 7.08609 6.17902 7.06859 6.18777C7.02338 6.22423 6.97817 6.26944 6.93296 6.30444C6.92421 6.32339 6.90525 6.3336 6.8965 6.3409C6.84254 6.39631 6.78859 6.44152 6.73463 6.49548C6.72442 6.49548 6.72442 6.50423 6.71567 6.51298C6.65975 6.56242 6.60575 6.61398 6.55379 6.66756C6.54359 6.67631 6.54359 6.68506 6.53484 6.68506C6.48798 6.73211 6.44275 6.78075 6.39921 6.83089C6.38171 6.84839 6.35546 6.86589 6.3365 6.88339C6.28926 6.94174 6.23757 6.99634 6.18192 7.04673C6.17317 7.06423 6.15567 7.07444 6.14692 7.09048C6.074 7.16339 6.01129 7.23631 5.93838 7.30923L5.91213 7.33548C5.76629 7.49006 5.61317 7.64319 5.44984 7.77881C5.2865 7.92464 5.11782 8.05735 4.94379 8.17694C4.59812 8.42348 4.22526 8.62949 3.83254 8.79089C3.64296 8.87256 3.44317 8.94548 3.24484 9.00819C2.86567 9.08985 2.47629 9.24298 2.14234 9.27069C2.06942 9.27069 1.98921 9.28819 1.91629 9.29694L1.69025 9.35089L1.47296 9.43256C1.40004 9.46173 1.3281 9.49478 1.25713 9.53173C1.19296 9.57694 1.1215 9.61339 1.05734 9.6586C0.992948 9.70512 0.932469 9.75682 0.876502 9.81319C0.813794 9.85694 0.749627 9.9211 0.695669 9.97506C0.64171 10.0378 0.587752 10.0917 0.542544 10.1559C0.497335 10.2288 0.443377 10.2915 0.406919 10.3644C0.358943 10.4298 0.316504 10.4991 0.280044 10.5715C0.243585 10.6532 0.207127 10.7261 0.180877 10.8063C0.153655 10.8812 0.126433 10.9594 0.0992104 11.0411C0.0817104 11.114 0.0627521 11.1869 0.0554604 11.2599C0.0554604 11.2671 0.0452521 11.2774 0.0452521 11.2861C0.0277521 11.3678 0.0277521 11.4757 0.0175437 11.5296C0.00879374 11.5938 4.37341e-05 11.6463 4.37341e-05 11.7105C-0.0014552 11.8677 0.0355973 12.0229 0.10796 12.1626V12.1713C0.137127 12.2258 0.170669 12.2802 0.208585 12.3346C0.242613 12.3891 0.281502 12.443 0.325252 12.4965C0.37046 12.5417 0.424419 12.5971 0.479835 12.6424C0.532933 12.6948 0.589976 12.743 0.65046 12.7867C0.867752 12.9763 0.92171 13.039 1.20171 13.1834C1.24692 13.2111 1.29213 13.2286 1.34754 13.2563C1.35629 13.2563 1.36504 13.2651 1.37379 13.2651C1.37379 13.284 1.37379 13.2928 1.38254 13.3103C1.40404 13.4592 1.44321 13.6051 1.49921 13.7449C1.52838 13.7988 1.54588 13.8528 1.57213 13.9067C1.58185 13.9262 1.59157 13.9412 1.60129 13.9519C1.63629 14.0249 1.67275 14.0876 1.70775 14.1517L1.84338 14.3413C1.88859 14.3953 1.944 14.458 1.99796 14.5134C2.05192 14.5688 2.10588 14.6126 2.17004 14.6665C2.17004 14.6665 2.17879 14.6753 2.18754 14.6753C2.24102 14.7219 2.29546 14.7642 2.35088 14.8021C2.41381 14.8462 2.48013 14.8852 2.54921 14.9188C2.61192 14.9553 2.68484 14.9917 2.75629 15.0194C2.81513 15.0443 2.87554 15.0652 2.93713 15.0821C2.94734 15.0909 2.95609 15.0909 2.97359 15.0996C3.01004 15.1099 3.05525 15.1186 3.09025 15.1274C3.064 15.6159 3.05525 16.0753 3.12817 16.2386C3.20838 16.4194 3.6065 15.8682 4.00317 15.2353C3.95067 15.8594 3.91421 16.5915 4.00317 16.8088C4.10379 17.0349 4.64484 16.329 5.11588 15.5517C11.5253 14.0701 17.3732 18.4976 17.9871 24.7538C17.8705 23.7767 16.6673 23.2357 16.1161 23.3713C15.8448 24.0392 15.384 24.8982 14.6432 25.4319C14.7059 24.834 14.6796 24.2215 14.5528 23.6236C14.3507 24.456 13.9678 25.2338 13.4313 25.9015C12.5738 25.9642 11.7148 25.5486 11.2628 24.9244C11.2263 24.8982 11.2175 24.8442 11.1898 24.8078C11.1616 24.7446 11.1373 24.6814 11.1169 24.6182C11.0904 24.5577 11.0723 24.4939 11.063 24.4286C11.0552 24.3664 11.0523 24.2998 11.0542 24.2288V24.0932C11.065 24.0291 11.0801 23.9657 11.0994 23.9036C11.1159 23.8414 11.1373 23.7782 11.1636 23.714C11.1986 23.6513 11.2263 23.5871 11.2715 23.5244C11.4246 23.0899 11.4246 22.7369 11.1446 22.5299C11.0893 22.4959 11.0319 22.4657 10.9725 22.4394C10.9375 22.4307 10.8923 22.4132 10.8559 22.403L10.783 22.3767C10.7208 22.3574 10.6575 22.3423 10.5934 22.3315C10.5317 22.314 10.4679 22.3047 10.4038 22.3038C10.3382 22.2935 10.2719 22.2876 10.2055 22.2863C10.1603 22.2863 10.115 22.2951 10.0698 22.2951C10.0023 22.295 9.93504 22.3043 9.87004 22.3228C9.80782 22.3305 9.74463 22.3422 9.68046 22.3578C9.61587 22.3748 9.55253 22.3962 9.49088 22.4219C9.42817 22.4482 9.37421 22.4759 9.31004 22.5036C9.25609 22.5299 9.20213 22.5663 9.13796 22.594C7.03213 23.9678 8.28921 27.1849 9.72567 28.1167C9.18317 28.2159 8.63192 28.3326 8.4788 28.4507L8.45984 28.4682C8.84873 28.7015 9.2556 28.9037 9.68046 29.0749C10.2594 29.2644 10.8734 29.4351 11.1446 29.508V29.5167C11.8935 29.6705 12.6594 29.7254 13.4225 29.6801C17.4271 29.4001 20.7084 26.3536 21.3048 22.3403L21.3588 22.5751C21.3865 22.7384 21.4215 22.9105 21.4405 23.0811V23.0899C21.456 23.1725 21.4682 23.2512 21.4769 23.3261V23.3611C21.4866 23.4437 21.4925 23.5225 21.4944 23.5974C21.5041 23.6965 21.51 23.7957 21.5119 23.8949V24.0407C21.5119 24.0844 21.5221 24.1384 21.5221 24.1836C21.5221 24.239 21.5119 24.293 21.5119 24.3469V24.4738C21.5119 24.5365 21.5032 24.5905 21.5032 24.6546C21.5051 24.6896 21.5022 24.7285 21.4944 24.7713C21.4944 24.8355 21.4857 24.8982 21.4857 24.9711C21.4789 24.9973 21.4759 25.0241 21.4769 25.0513L21.4478 25.2598C21.4487 25.2871 21.4463 25.3143 21.4405 25.3415C21.4303 25.4319 21.4128 25.5136 21.404 25.604V25.6215L21.35 25.8753V25.9015L21.2961 26.1451C21.2961 26.1553 21.2859 26.1742 21.2859 26.1815C21.2685 26.2641 21.2476 26.3458 21.2232 26.4265V26.4528C21.194 26.5412 21.1697 26.6258 21.1503 26.7065C21.1425 26.7162 21.1396 26.7221 21.1415 26.724L21.0598 26.9953C21.0248 27.0857 20.9971 27.1674 20.9607 27.2578C20.9242 27.3482 20.898 27.4386 20.8615 27.5203C20.825 27.6107 20.7886 27.6909 20.7536 27.7828H20.7434C20.7084 27.863 20.6705 27.9534 20.6267 28.0351L20.599 28.0978C20.5903 28.1065 20.5903 28.1167 20.5815 28.1255C19.9822 29.3213 19.1124 30.3609 18.0411 31.1617C17.9682 31.2069 17.8967 31.2624 17.8238 31.3163C17.8063 31.3338 17.78 31.3426 17.7611 31.3601C17.6962 31.4076 17.6301 31.4533 17.5628 31.4971L17.589 31.5511H17.5992L17.9784 31.4971H17.9871C18.2214 31.4592 18.4562 31.4169 18.6915 31.3703C18.7557 31.3615 18.8271 31.3426 18.8913 31.3251L19.0182 31.2974C19.0809 31.2886 19.1436 31.2711 19.2078 31.2624C19.2617 31.2434 19.3157 31.2332 19.3696 31.2171C20.2738 30.9984 21.1503 30.7009 21.9917 30.3494C20.5402 32.3293 18.6078 33.9063 16.3771 34.9315C17.4184 34.8586 18.4567 34.688 19.46 34.3978C23.0918 33.3305 26.1592 30.8795 28.0015 27.5728C27.629 29.6658 26.7989 31.6507 25.5705 33.3857C26.4462 32.8074 27.2556 32.1345 27.984 31.379C30.0091 29.2681 31.3376 26.5865 31.7903 23.6965C32.0965 25.1257 32.1869 26.5986 32.0528 28.0526C38.5773 18.9511 32.5938 9.51423 30.0898 7.02923C30.0811 7.01027 30.0723 7.00152 30.0723 6.98402C30.0636 6.99277 30.0636 6.99277 30.0636 7.00152C30.0636 6.99277 30.0636 6.99277 30.0534 6.98402C30.0514 7.09096 30.0456 7.19937 30.0359 7.30923C30.011 7.51172 29.9809 7.71353 29.9455 7.91444C29.9017 8.11277 29.8463 8.31256 29.7923 8.51235C29.7282 8.70194 29.6567 8.90027 29.5736 9.08985C29.4914 9.27731 29.4014 9.46122 29.3038 9.6411C29.1004 9.99441 28.8677 10.33 28.6082 10.6444C28.4725 10.8063 28.3282 10.9507 28.1823 11.0965C28.0971 11.1744 28.0096 11.2498 27.9198 11.3226L27.7128 11.5034C27.5504 11.6294 27.3815 11.7467 27.2067 11.8549C27.0343 11.9668 26.8562 12.0695 26.673 12.1626C26.4834 12.251 26.2938 12.3356 26.1042 12.4163C25.718 12.5629 25.3185 12.6718 24.9113 12.7415C24.7028 12.778 24.4957 12.7955 24.2959 12.8144C24.1517 12.8246 24.0073 12.8304 23.8628 12.8319C23.6572 12.8285 23.4519 12.8163 23.2473 12.7955C23.0408 12.7799 22.8356 12.7497 22.6334 12.7051C22.4283 12.6685 22.226 12.6173 22.0282 12.5519H22.018C22.2178 12.533 22.4161 12.5155 22.6159 12.479C23.0229 12.4084 23.4223 12.2995 23.8088 12.1538C24.0071 12.0809 24.1967 11.9905 24.3775 11.9001C24.5671 11.8096 24.7392 11.7105 24.92 11.6026C25.0931 11.4869 25.2618 11.3663 25.4261 11.2409C25.5894 11.1145 25.743 10.9789 25.8869 10.834C26.04 10.6984 26.1757 10.5453 26.3113 10.3907C26.4474 10.2283 26.5738 10.066 26.6905 9.9036C26.7094 9.87589 26.7284 9.83944 26.7459 9.81319C26.8382 9.66735 26.9257 9.52249 27.0084 9.3786C27.2074 9.01875 27.3706 8.64019 27.4955 8.24839C27.5596 8.05881 27.6048 7.86048 27.65 7.66069C27.6865 7.4536 27.723 7.25527 27.7405 7.05548C27.758 6.84839 27.7769 6.63985 27.7769 6.44152C27.7769 6.29569 27.7667 6.15131 27.758 6.00694C27.7397 5.80452 27.7154 5.60269 27.685 5.40173C27.6489 5.19818 27.6042 4.99626 27.5509 4.79652C27.4867 4.60694 27.424 4.40715 27.3511 4.21756C27.2782 4.02798 27.1892 3.83839 27.0988 3.65756C26.9996 3.47576 26.8971 3.29784 26.7911 3.12381C26.6755 2.95495 26.5549 2.78959 26.4294 2.62798C26.2953 2.47242 26.1567 2.31833 26.0138 2.16569C25.9377 2.08817 25.8594 2.01279 25.779 1.93965C25.3687 1.62173 24.9497 1.32666 24.5219 1.05444C24.4638 1.02015 24.4034 0.989939 24.3411 0.96402C24.0731 0.799626 23.7842 0.670632 23.4821 0.583395Z" fill="white"/>
</g>
<defs>
<clipPath id="clip0_115_64">
<rect width="35" height="35" fill="white"/>
</clipPath>
</defs>
</svg>
