<svg width="35" height="35" viewBox="0 0 35 35" fill="none" xmlns="http://www.w3.org/2000/svg">
<path d="M12.1887 29.4029C10.4591 27.8425 9.95456 24.5671 10.675 22.1929C11.9233 23.6892 13.6544 24.1646 15.4466 24.4315C18.2131 24.8442 20.93 24.6896 23.4996 23.4427C23.7941 23.2998 24.0654 23.1088 24.3862 22.9177C24.6283 23.6075 24.691 24.3031 24.6064 25.0133C24.4023 26.7415 23.5302 28.0758 22.1448 29.0879C21.5906 29.4919 21.0044 29.8535 20.4312 30.2356C18.6739 31.4081 18.1985 32.7833 18.8591 34.7842L18.9233 35C18.0825 34.639 17.3682 34.0359 16.8714 33.2675C16.3539 32.4817 16.0781 31.5615 16.0781 30.6206C16.0723 30.154 16.0723 29.6844 16.0081 29.2235C15.8535 28.1021 15.3198 27.6004 14.315 27.5713C13.2839 27.5421 12.4673 28.1706 12.2514 29.1608C12.2339 29.2381 12.2106 29.3125 12.1858 29.4015L12.1887 29.4029ZM3.49561 22.9206C3.49561 22.9206 8.22061 20.6238 12.9602 20.6238L16.5346 9.59146C16.6687 9.05771 17.0596 8.69604 17.5 8.69604C17.9404 8.69604 18.3312 9.05771 18.4654 9.59146L22.0383 20.6238C27.6529 20.6238 31.5044 22.9206 31.5044 22.9206L23.4616 1.06021C23.2312 0.415625 22.8419 0 22.3169 0H12.6831C12.1581 0 11.7862 0.415625 11.5398 1.06021L3.49561 22.9206Z" fill="white"/>
</svg>
