<svg width="35" height="35" viewBox="0 0 35 35" fill="none" xmlns="http://www.w3.org/2000/svg">
<g clip-path="url(#clip0_115_78)">
<path d="M17.5002 5.83325C15.1062 5.83325 13.0482 6.47959 11.4335 7.86325C9.8282 9.23992 8.78054 11.2396 8.1972 13.7339C8.13529 13.9981 8.16739 14.2756 8.28799 14.5187C8.40858 14.7617 8.61013 14.9552 8.85794 15.0657C9.10575 15.1762 9.38434 15.1968 9.64575 15.1241C9.90716 15.0514 10.135 14.8899 10.2902 14.6673C11.0275 13.6126 11.7649 12.9803 12.4742 12.6536C13.1602 12.3386 13.8999 12.2756 14.7492 12.5019C15.6032 12.7306 16.2659 13.4026 17.3042 14.5319L17.3392 14.5693C18.1232 15.4209 19.0775 16.4593 20.3842 17.2666C21.7422 18.1043 23.4292 18.6666 25.6669 18.6666C28.0609 18.6666 30.1189 18.0203 31.7335 16.6366C33.3389 15.2599 34.3889 13.2603 34.9699 10.7659C35.0318 10.5017 34.9997 10.2242 34.8791 9.98118C34.7585 9.73812 34.5569 9.54469 34.3091 9.43418C34.0613 9.32367 33.7827 9.303 33.5213 9.37571C33.2599 9.44843 33.032 9.60999 32.8769 9.83259C32.1395 10.8873 31.4022 11.5196 30.6929 11.8463C30.0069 12.1613 29.2672 12.2243 28.4179 11.9979C27.5639 11.7693 26.9012 11.0973 25.8629 9.96792L25.8279 9.93059C25.0439 9.07892 24.0895 8.04059 22.7829 7.23325C21.4249 6.39559 19.7379 5.83325 17.5002 5.83325ZM9.33354 16.3333C6.93954 16.3333 4.88154 16.9796 3.26687 18.3633C1.66154 19.7399 0.61387 21.7396 0.0305362 24.2339C-0.0313784 24.4981 0.000724082 24.7756 0.121319 25.0187C0.241915 25.2617 0.44346 25.4552 0.691274 25.5657C0.939087 25.6762 1.21767 25.6968 1.47908 25.6241C1.74049 25.5514 1.96838 25.3899 2.12354 25.1673C2.86087 24.1126 3.5982 23.4803 4.30754 23.1536C4.99354 22.8386 5.7332 22.7756 6.58254 23.0019C7.43654 23.2306 8.0992 23.9026 9.13754 25.0319L9.17254 25.0693C9.95654 25.9209 10.9109 26.9593 12.2175 27.7666C13.5755 28.6043 15.2625 29.1666 17.5002 29.1666C19.8942 29.1666 21.9522 28.5203 23.5669 27.1366C25.1722 25.7599 26.2222 23.7603 26.8032 21.2659C26.8651 21.0017 26.833 20.7242 26.7124 20.4812C26.5918 20.2381 26.3903 20.0447 26.1425 19.9342C25.8947 19.8237 25.6161 19.803 25.3547 19.8757C25.0933 19.9484 24.8654 20.11 24.7102 20.3326C23.9729 21.3873 23.2355 22.0196 22.5262 22.3463C21.8402 22.6613 21.1005 22.7243 20.2512 22.4979C19.3972 22.2693 18.7345 21.5973 17.6962 20.4679L17.6612 20.4306C16.8795 19.5789 15.9229 18.5406 14.6162 17.7333C13.2582 16.8933 11.5712 16.3333 9.33354 16.3333Z" fill="white"/>
</g>
<defs>
<clipPath id="clip0_115_78">
<rect width="35" height="35" fill="white"/>
</clipPath>
</defs>
</svg>
